<svg width="48" height="31" viewBox="0 0 48 31" fill="none" xmlns="http://www.w3.org/2000/svg">
<path d="M15.0417 5.88379C18.3083 3.1123 22.7167 0.71875 28 0.71875C33.2833 0.71875 37.6917 3.1123 40.9583 5.88379C44.2167 8.65527 46.5333 11.9643 47.7083 14.2654C48.1 15.0381 48.1 15.9535 47.7083 16.7262C46.5333 19.0273 44.2167 22.3363 40.9583 25.1078C37.6917 27.8877 33.2917 30.2729 28 30.2729C22.7083 30.2729 18.3083 27.8793 15.0417 25.1078C13.6917 23.9572 12.5 22.7143 11.4833 21.4881L4.00833 25.8805C2.96667 26.4936 1.64167 26.3256 0.783334 25.4689C-0.0749997 24.6123 -0.25 23.2854 0.341667 22.2271L4.16667 15.5L0.35 8.77285C-0.25 7.71465 -0.0666663 6.3877 0.791667 5.53105C1.65 4.67441 2.96667 4.50644 4.01667 5.11953L11.4917 9.51191C12.5083 8.28574 13.7 7.04277 15.05 5.89219L15.0417 5.88379ZM37.3333 15.5C37.3333 14.7872 37.0524 14.1037 36.5523 13.5997C36.0522 13.0956 35.3739 12.8125 34.6667 12.8125C33.9594 12.8125 33.2811 13.0956 32.7811 13.5997C32.281 14.1037 32 14.7872 32 15.5C32 16.2128 32.281 16.8963 32.7811 17.4003C33.2811 17.9044 33.9594 18.1875 34.6667 18.1875C35.3739 18.1875 36.0522 17.9044 36.5523 17.4003C37.0524 16.8963 37.3333 16.2128 37.3333 15.5Z" fill="#5A189A"/>
</svg>
